<svg width="21" height="25" viewBox="0 0 21 25" fill="none" xmlns="http://www.w3.org/2000/svg">
<path d="M1 12.5269C1 10.6412 1 9.69843 1.58579 9.11264C2.17157 8.52686 3.11438 8.52686 5 8.52686H15.7616C17.6472 8.52686 18.59 8.52686 19.1758 9.11264C19.7616 9.69843 19.7616 10.6412 19.7616 12.5269V17.5808C19.7616 20.4092 19.7616 21.8234 18.8829 22.7021C18.0042 23.5808 16.59 23.5808 13.7616 23.5808H7C4.17157 23.5808 2.75736 23.5808 1.87868 22.7021C1 21.8234 1 20.4092 1 17.5808V12.5269Z" stroke="#42B8F3" stroke-width="2"/>
<path d="M15.0712 7.27247V5.69039C15.0712 3.09996 12.9713 1 10.3808 1V1C7.79039 1 5.69043 3.09996 5.69043 5.69039V7.27247" stroke="#42B8F3" stroke-width="2" stroke-linecap="round"/>
<ellipse cx="10.3808" cy="16.0539" rx="2.3452" ry="2.50899" fill="#42B8F3"/>
</svg>
