<svg width="17" height="22" viewBox="0 0 17 22" fill="none" xmlns="http://www.w3.org/2000/svg">
<path d="M2.15181 1.79316C1.51679 2.28164 1.23448 2.92181 1.11012 3.63329C0.999803 4.26448 0.999893 5.04605 0.999994 5.9202C0.999997 5.94671 1 5.97331 1 6V16C1 16.0267 0.999997 16.0533 0.999994 16.0798C0.999893 16.954 0.999803 17.7355 1.11012 18.3667C1.23448 19.0782 1.51679 19.7184 2.15181 20.2068C2.74922 20.6664 3.46507 20.8409 4.24422 20.9215C5.00388 21 5.96601 21 7.14444 21H7.2H9.8H9.85555C11.034 21 11.9961 21 12.7558 20.9215C13.5349 20.8409 14.2508 20.6664 14.8482 20.2068C15.4832 19.7184 15.7655 19.0782 15.8899 18.3667C16.0002 17.7355 16.0001 16.954 16 16.0798C16 16.0533 16 16.0267 16 16V6C16 5.97331 16 5.94671 16 5.9202C16.0001 5.04605 16.0002 4.26448 15.8899 3.63329C15.7655 2.92181 15.4832 2.28164 14.8482 1.79316C14.2508 1.33362 13.5349 1.15911 12.7558 1.07853C11.9961 0.999965 11.034 0.99998 9.85554 0.999999L9.8 1H7.2L7.14446 0.999999C5.96602 0.99998 5.00388 0.999965 4.24422 1.07853C3.46507 1.15911 2.74922 1.33362 2.15181 1.79316Z" stroke="#42B8F3" stroke-width="2"/>
<path d="M2 15H15" stroke="#42B8F3" stroke-width="2"/>
</svg>
